<?xml version="1.0" standalone="no"?><!DOCTYPE svg PUBLIC "-//W3C//DTD SVG 1.1//EN" "http://www.w3.org/Graphics/SVG/1.1/DTD/svg11.dtd"><svg t="1658799497744" class="icon" viewBox="0 0 1024 1024" version="1.1" xmlns="http://www.w3.org/2000/svg" p-id="8482" width="48" height="48" xmlns:xlink="http://www.w3.org/1999/xlink"><defs><style type="text/css">@font-face { font-family: feedback-iconfont; src: url("//at.alicdn.com/t/font_1031158_u69w8yhxdu.woff2?t=1630033759944") format("woff2"), url("//at.alicdn.com/t/font_1031158_u69w8yhxdu.woff?t=1630033759944") format("woff"), url("//at.alicdn.com/t/font_1031158_u69w8yhxdu.ttf?t=1630033759944") format("truetype"); }
</style></defs><path d="M482.133333 908.8C264.533333 908.8 85.333333 729.6 85.333333 512s179.2-396.8 396.8-396.8c217.6 0 396.8 179.2 396.8 396.8 0 17.066667-12.8 25.6-25.6 25.6-17.066667 0-25.6-12.8-25.6-25.6 0-187.733333-153.6-341.333333-341.333333-341.333333s-341.333333 153.6-341.333333 341.333333 153.6 341.333333 341.333333 341.333333c17.066667 0 25.6 12.8 25.6 25.6-4.266667 17.066667-17.066667 29.866667-29.866667 29.866667z" p-id="8483"></path><path d="M448 580.266667c-17.066667 0-25.6-12.8-25.6-25.6V260.266667c0-17.066667 12.8-25.6 25.6-25.6 17.066667 0 25.6 12.8 25.6 25.6V554.666667c0 12.8-12.8 25.6-25.6 25.6z" p-id="8484"></path><path d="M452.266667 571.733333c-8.533333 0-12.8-4.266667-17.066667-8.533333-12.8-8.533333-12.8-29.866667 0-38.4l149.333333-162.133333c8.533333-12.8 29.866667-12.8 38.4 0 12.8 8.533333 12.8 29.866667 0 38.4l-149.333333 162.133333c-4.266667 4.266667-12.8 8.533333-21.333333 8.533333zM938.666667 738.133333c-4.266667-8.533333-8.533333-12.8-12.8-12.8-38.4-38.4-119.466667-64-132.266667-64h-4.266667s0-4.266667-4.266666-8.533333v-8.533333c0-8.533333-4.266667-21.333333-12.8-29.866667-4.266667-4.266667-8.533333-17.066667-21.333334-25.6-21.333333-17.066667-46.933333-17.066667-55.466666-17.066667-8.533333 0-38.4 0-59.733334 25.6-21.333333 25.6-25.6 68.266667-8.533333 93.866667 8.533333 12.8 29.866667 25.6 46.933333 21.333333 8.533333-4.266667 17.066667-8.533333 21.333334-21.333333 4.266667-4.266667 4.266667-8.533333 4.266666-12.8 0-4.266667 0-8.533333-4.266666-17.066667l-8.533334-8.533333c-4.266667 0-4.266667 0-8.533333-4.266667-4.266667 0-8.533333 0-12.8 4.266667-4.266667 4.266667-12.8 0-12.8 0-4.266667-4.266667-4.266667-12.8-4.266667-12.8 0-17.066667 17.066667-29.866667 17.066667-29.866667 12.8-8.533333 25.6-8.533333 34.133333-8.533333 4.266667 0 17.066667 0 29.866667 8.533333l8.533333 8.533334c4.266667 4.266667 4.266667 12.8 8.533334 17.066666 4.266667 8.533333 4.266667 17.066667 4.266666 17.066667 0 8.533333 4.266667 25.6-8.533333 42.666667 0 0-4.266667 8.533333-12.8 12.8-12.8 8.533333-29.866667 12.8-42.666667 21.333333-4.266667 0-4.266667 4.266667-4.266666 4.266667s0 4.266667 4.266666 4.266666c12.8 8.533333 29.866667 12.8 42.666667 21.333334 8.533333 4.266667 8.533333 12.8 12.8 12.8 8.533333 17.066667 8.533333 29.866667 8.533333 42.666666 0 4.266667 0 12.8-4.266666 17.066667 0 4.266667-4.266667 12.8-8.533334 17.066667l-8.533333 8.533333c-12.8 8.533333-25.6 8.533333-29.866667 8.533333-4.266667 0-21.333333 0-34.133333-8.533333 0 0-17.066667-12.8-17.066667-29.866667 0-4.266667 0-12.8 4.266667-12.8 4.266667-4.266667 8.533333-4.266667 12.8 0 8.533333 4.266667 8.533333 4.266667 12.8 4.266667 0 0 4.266667 0 8.533333-4.266667l8.533334-8.533333c4.266667-4.266667 4.266667-12.8 4.266666-17.066667 0-4.266667 0-8.533333-4.266666-12.8-4.266667-8.533333-12.8-17.066667-21.333334-21.333333-17.066667-4.266667-38.4 8.533333-46.933333 21.333333-21.333333 25.6-17.066667 68.266667 8.533333 93.866667 21.333333 25.6 51.2 25.6 59.733334 25.6 8.533333 0 29.866667 0 55.466666-17.066667 12.8-8.533333 21.333333-21.333333 21.333334-25.6 4.266667-8.533333 8.533333-21.333333 12.8-29.866666v-8.533334c0-4.266667 0-8.533333 4.266666-8.533333h4.266667c12.8 0 93.866667-25.6 132.266667-64 4.266667 8.533333 8.533333 4.266667 12.8-4.266667z" p-id="8485"></path><path d="M580.266667 691.2c-4.266667 0-8.533333 4.266667-8.533334 8.533333s4.266667 12.8 8.533334 12.8c12.8 4.266667 25.6 17.066667 25.6 29.866667 0 12.8-8.533333 25.6-25.6 29.866667-8.533333 4.266667-8.533333 8.533333-8.533334 12.8 0 4.266667 4.266667 4.266667 8.533334 4.266666 29.866667-17.066667 55.466667-34.133333 85.333333-51.2l-85.333333-46.933333z" p-id="8486"></path></svg>